<?xml version="1.0" encoding="utf-8"?>
<svg xmlns="http://www.w3.org/2000/svg" viewBox="0 0 26 26" width="52" height="52">
  <path d="M17.867188 3.890625C15.773438 3.890625 13.980469 5.382813 12.996094 6.410156C12.015625 5.382813 10.226563 3.890625 8.132813 3.890625C4.519531 3.890625 2 6.40625 2 10.007813C2 13.980469 5.132813 16.546875 8.160156 19.027344C9.589844 20.199219 11.070313 21.410156 12.203125 22.757813C12.394531 22.980469 12.675781 23.109375 12.96875 23.109375L13.027344 23.109375C13.324219 23.109375 13.601563 22.980469 13.792969 22.757813C14.929688 21.410156 16.40625 20.199219 17.839844 19.027344C20.867188 16.546875 24 13.980469 24 10.007813C24 6.40625 21.480469 3.890625 17.867188 3.890625Z" fill="#FF0000" />
</svg>